<?xml version="1.0" encoding="utf-8"?>
<!-- Generator: Adobe Illustrator 19.1.0, SVG Export Plug-In . SVG Version: 6.00 Build 0)  -->
<svg version="1.1" id="Layer_1" xmlns="http://www.w3.org/2000/svg" xmlns:xlink="http://www.w3.org/1999/xlink" x="0px" y="0px"
	 viewBox="0 0 118.9 143.4" style="enable-background:new 0 0 118.9 143.4;" xml:space="preserve">
<style type="text/css">
	.st0{fill:#CFC1F2;}
	.st1{fill:#404D56;}
	.st2{fill:#96D3C1;}
	.st3{fill:#FF6A82;}
	.st4{fill:none;stroke:#404D56;stroke-width:1.6409;stroke-linecap:round;stroke-linejoin:round;stroke-miterlimit:10;}
	.st5{fill:none;stroke:#FF6A82;stroke-width:1.2;stroke-linecap:round;stroke-linejoin:round;stroke-miterlimit:10;}
	.st6{opacity:0.4;}
	.st7{opacity:0.3;}
	.st8{opacity:0.3;fill:#404D56;stroke:#404D56;stroke-width:1.4059;stroke-miterlimit:10;}
	.st9{opacity:0.3;fill:#404D56;stroke:#404D56;stroke-width:1.1927;stroke-miterlimit:10;}
	.st10{opacity:0.3;fill:#404D56;stroke:#404D56;stroke-width:1.232;stroke-miterlimit:10;}
	.st11{opacity:0.3;fill:#404D56;stroke:#404D56;stroke-width:1.126;stroke-miterlimit:10;}
	.st12{opacity:0.3;fill:#404D56;stroke:#404D56;stroke-width:1.4997;stroke-miterlimit:10;}
	.st13{opacity:0.3;fill:#404D56;stroke:#404D56;stroke-width:0.9578;stroke-miterlimit:10;}
	.st14{fill:#FCFCFC;}
	.st15{fill:#FFFFFF;}
</style>
<g>
	<g>
		<path class="st0" d="M33,98.9c-2.2,0-4.6-0.3-6.9-0.9c-2.9-0.8-5.4-1.8-7.6-3.2c-2.2-1.4-4.1-3.1-5.7-5.1c-1.7-2.1-3-4.3-4-6.8
			c-1-2.4-1.8-4.9-2.4-7.4l0-0.1c-0.2-0.9-0.2-1.9-0.2-2.9c0-1,0.1-2,0.4-3c0.6-2.4,1.8-4.1,3.6-5c1.1-0.6,2.2-0.9,3.4-0.9
			c0.6,0,1.3,0.1,1.9,0.3c1.3,0.4,2.5,1.1,3.4,2.1c0.9,1.1,1.5,2.5,1.7,4.5c0.4,3.6,1.3,6.4,2.7,8.2c1.3,1.8,3.7,3.1,6.9,4
			c1.4,0.4,2.7,0.6,3.9,0.6c2,0,3.6-0.5,5-1.5c2.3-1.7,3.9-4,4.6-6.9c0.4-1.6,0.6-3.3,0.5-5.1c-0.1-1.7-0.5-3.3-1.2-4.7
			c-1.6-2.9-3.7-5.8-6.3-8.6c-2.7-3-5.3-6.1-7.5-9.2c-3.1-4.4-5.2-8.5-6.2-12.2c-1-3.8-1-7.8,0.1-11.9c0.8-3.2,2.2-6,4-8.4
			c1.8-2.4,3.9-4.3,6.4-5.7c2.4-1.4,5.1-2.3,8-2.7c1-0.1,2-0.2,2.9-0.2c2,0,4,0.3,6,0.8c2.4,0.6,4.5,1.6,6.4,2.8
			c1.9,1.2,3.6,2.7,5,4.3C63.6,16,65,18.4,66,21c1,2.8,1.1,5.6,0.4,8.3c-0.6,2.1-1.7,3.7-3.4,4.7c-1.2,0.6-2.3,1-3.5,1
			c-0.5,0-1.1-0.1-1.6-0.2c-1.2-0.3-2.3-1-3.2-2c-0.9-1-1.5-2.4-1.8-4.1c-0.4-1.7-1.1-3.2-2.1-4.5c-0.9-1.2-2.3-2-4.2-2.5
			c-1.1-0.3-2.1-0.4-3-0.4c-1.2,0-2.2,0.2-3.1,0.7c-1.5,0.8-2.6,2.3-3.2,4.6c-0.4,1.6-0.4,3.1,0,4.6c0.5,1.6,1.7,3.7,3.5,6.2
			c1.1,1.5,2.4,3.1,3.7,4.7c1.5,1.7,2.9,3.4,4.3,5.1c1.4,1.7,2.8,3.5,4,5.3c1.3,1.8,2.4,3.7,3.4,5.5c1.5,3,2.4,6.1,2.7,9.3
			c0.3,3.2-0.1,7-1.3,11.4c-0.9,3.4-2.3,6.5-4.3,9.4c-2,2.9-4.4,5.2-7.1,7c-2.8,1.8-5.9,3-9.4,3.6C35.7,98.8,34.3,98.9,33,98.9z"/>
		<path class="st1" d="M44.2,7.6c1.8,0,3.7,0.3,5.6,0.8c2.2,0.6,4.2,1.4,6,2.6c1.8,1.1,3.3,2.5,4.6,4c1.7,2,3,4.2,3.9,6.7
			c0.9,2.5,1,4.9,0.4,7.4c-0.4,1.7-1.3,2.9-2.7,3.6c-0.9,0.5-1.8,0.8-2.7,0.8c-0.4,0-0.8-0.1-1.2-0.2c-0.9-0.2-1.7-0.8-2.4-1.5
			c-0.7-0.8-1.2-1.9-1.4-3.3c-0.5-2-1.3-3.8-2.4-5.2c-1.2-1.4-2.8-2.4-5-3c-1.2-0.3-2.4-0.5-3.4-0.5c-1.4,0-2.7,0.3-3.8,0.9
			c-1.9,1-3.3,2.9-4,5.6c-0.5,1.9-0.5,3.7,0.1,5.4c0.5,1.8,1.8,4,3.8,6.7c1.1,1.6,2.4,3.2,3.8,4.8c1.4,1.6,2.8,3.3,4.2,5.1
			c1.4,1.7,2.7,3.5,4,5.2c1.3,1.7,2.3,3.5,3.2,5.3c1.4,2.8,2.3,5.7,2.6,8.8c0.3,3-0.1,6.6-1.2,10.9c-0.8,3.2-2.2,6.2-4,8.8
			c-1.8,2.7-4.1,4.9-6.7,6.5c-2.6,1.7-5.5,2.8-8.8,3.3c-1.2,0.2-2.4,0.3-3.7,0.3c-2.1,0-4.3-0.3-6.5-0.9c-2.7-0.7-5.1-1.7-7.1-3
			c-2.1-1.3-3.8-2.9-5.3-4.7c-1.6-2-2.8-4.1-3.8-6.4C9.3,80,8.6,77.6,8,75c-0.1-0.9-0.2-1.7-0.2-2.6c0-0.9,0.1-1.8,0.4-2.6
			c0.5-1.9,1.4-3.3,2.7-4c0.8-0.4,1.7-0.7,2.6-0.7c0.5,0,1,0.1,1.5,0.2c1,0.3,1.9,0.8,2.6,1.6c0.7,0.8,1.1,2,1.4,3.6
			c0.4,3.9,1.4,6.9,3,9c1.6,2.1,4.2,3.6,7.8,4.6c1.6,0.4,3,0.6,4.3,0.6c2.3,0,4.3-0.6,6-1.8c2.6-1.9,4.4-4.5,5.3-7.8
			c0.5-1.8,0.6-3.7,0.5-5.6c-0.1-2-0.6-3.8-1.4-5.3c-1.6-3.1-3.8-6.1-6.5-9c-2.7-2.9-5.1-6-7.3-9.1c-3-4.2-5-8.1-6-11.7
			c-1-3.6-0.9-7.2,0.1-11c0.8-3,2-5.6,3.7-7.8c1.7-2.2,3.6-4,5.9-5.3c2.2-1.3,4.7-2.2,7.4-2.5C42.4,7.6,43.3,7.6,44.2,7.6 M44.2,4.3
			c-1.1,0-2.1,0.1-3.2,0.2c-3.1,0.4-6,1.4-8.6,2.9c-2.6,1.5-4.9,3.6-6.9,6.2c-1.9,2.6-3.3,5.6-4.2,8.9c-1.1,4.4-1.2,8.6-0.1,12.7
			c1.1,3.9,3.3,8.2,6.5,12.8c2.2,3.2,4.8,6.3,7.6,9.4c2.5,2.7,4.5,5.5,6,8.3c0.6,1.2,1,2.5,1.1,4c0.1,1.6-0.1,3.2-0.4,4.6
			c-0.7,2.6-2,4.5-4,6c-1.1,0.8-2.4,1.2-4,1.2c-1,0-2.2-0.2-3.5-0.5c-2.9-0.8-4.9-1.9-6-3.4c-1.2-1.6-2-4.1-2.3-7.4l0,0l0,0
			c-0.3-2.2-1-4-2.1-5.3c-1.1-1.3-2.6-2.2-4.2-2.7c-0.8-0.2-1.6-0.3-2.3-0.3c-1.4,0-2.8,0.4-4.2,1.1c-2.2,1.1-3.6,3.2-4.4,6
			c-0.3,1.1-0.4,2.3-0.5,3.4c0,1.1,0.1,2.2,0.2,3.2l0,0.1l0,0.1c0.6,2.7,1.5,5.2,2.5,7.7c1.1,2.6,2.5,5,4.2,7.2
			c1.7,2.1,3.8,4,6.1,5.4c2.3,1.5,5,2.6,8.1,3.4c2.5,0.7,5,1,7.3,1c1.4,0,2.8-0.1,4.2-0.4c3.6-0.6,7-1.9,10-3.8
			c3-1.9,5.5-4.4,7.6-7.4c2-3,3.6-6.3,4.5-9.9c1.2-4.6,1.7-8.6,1.3-12c-0.3-3.4-1.3-6.8-2.9-9.9c-1-1.9-2.1-3.8-3.5-5.7
			c-1.3-1.8-2.7-3.6-4.1-5.3c-1.4-1.7-2.8-3.4-4.3-5.1c-1.4-1.6-2.6-3.1-3.6-4.6l0,0l0,0c-2.2-3-3-4.7-3.3-5.7
			c-0.4-1.2-0.4-2.4,0-3.7c0.7-2.7,1.9-3.3,2.3-3.5c0.6-0.3,1.4-0.5,2.3-0.5c0.8,0,1.6,0.1,2.6,0.4c1.5,0.4,2.6,1,3.3,1.9
			c0.8,1,1.4,2.3,1.8,3.8c0.4,2,1.1,3.6,2.2,4.8c1.1,1.2,2.5,2.1,4,2.5c0.7,0.2,1.4,0.3,2,0.3c1.4,0,2.9-0.4,4.3-1.2
			c2.1-1.2,3.6-3.1,4.2-5.7c0.8-3.1,0.7-6.2-0.5-9.3c-1-2.8-2.6-5.4-4.5-7.7c-1.5-1.7-3.3-3.3-5.3-4.6c-2.1-1.3-4.4-2.3-6.9-3
			C48.5,4.6,46.3,4.3,44.2,4.3L44.2,4.3z"/>
	</g>
</g>
<g>
	<g>
		<path class="st1" d="M47.5,110.2c-11,0-20.3-9.5-21.3-21.7c-0.7-8.3,4.5-18.2,9.5-27.8c3.2-6.1,6.2-11.9,7.5-16.9c0.8-3,3-5,5.4-5
			c1.2,0,2.3,0.5,3,1.5c0.8,1.1,1.6,3.1,1,6.8c1.6-0.3,3.3-0.5,5.1-0.5c3.4,0,6.8,0.7,9.7,1.9c7.8,3.4,10.3,8.7,11.7,16.1
			c3,16-7.2,35.8-22.3,43.3C53.7,109.4,50.6,110.2,47.5,110.2z M48.9,56.4c-1.2,2.2-2.5,4.6-4,7c-4.1,7.1-8.3,14.4-8.6,19.4
			c-0.2,4,0,9,2.7,12.7c2.1,2.7,5.5,4.6,8.5,4.6c1,0,1.9-0.2,2.7-0.5c10.8-4.5,19.3-18,18.9-30C69,64,66.7,57.3,62.1,55.2
			c-1.6-0.7-3.3-1.1-5.1-1.1C54.3,54.2,51.6,55,48.9,56.4z"/>
		<path class="st1" d="M48.5,39.7c2.3,0,4.2,2.6,2.7,8.6c-2.6,0.7-4.9,1.9-6.4,3.5c-2.8,3-3.3,6.1-1.4,6.1c0.6,0,1.4-0.3,2.4-1
			l1.4-0.9c0.3-0.2,0.5-0.3,0.8-0.5c-4.6,8.8-12.5,20-12.8,27.1c-0.2,4.5,0.1,9.5,2.9,13.3c2.1,2.8,5.7,5,9.3,5
			c1.1,0,2.1-0.2,3.1-0.6C62,95.8,70.6,81.8,70.2,69.6c-0.2-5.3-2.3-12.9-7.7-15.3c-1.8-0.8-3.7-1.1-5.5-1.1c-3.1,0-6.1,1-8.8,2.5
			c1.4-2.6,2.5-5,3-7.1c0-0.1,0-0.2,0.1-0.3c2-0.6,4.1-0.8,6.4-0.8c3.2,0,6.4,0.6,9.3,1.8c7.3,3.2,9.7,7.9,11.1,15.4
			c3,15.9-7.3,35.1-21.7,42.2c-3,1.5-5.9,2.2-8.8,2.2c-10.6,0-19.4-9.3-20.3-20.8C26.1,75,40.9,56.8,44.1,44
			C44.8,41.3,46.8,39.7,48.5,39.7 M48.5,37.7c-2.9,0-5.5,2.4-6.4,5.8C41,48.4,38,54.1,34.8,60.2c-5,9.7-10.3,19.7-9.6,28.3
			c1,12.7,10.8,22.7,22.3,22.7c3.3,0,6.5-0.8,9.7-2.4c15.4-7.7,25.9-28,22.8-44.4c-1.5-7.8-4-13.3-12.3-16.9c-3-1.3-6.5-2-10.1-2
			c-1.3,0-2.6,0.1-3.9,0.3c0.3-3.2-0.5-5.1-1.4-6.2C51.4,38.4,50.1,37.7,48.5,37.7L48.5,37.7z M44.8,55.4c0.3-0.6,0.8-1.3,1.6-2.1
			c0.4-0.4,0.9-0.8,1.4-1.2c-0.3,0.7-0.7,1.4-1.1,2.1c-0.1,0.1-0.3,0.2-0.4,0.2l-1.4,0.9C44.8,55.4,44.8,55.4,44.8,55.4L44.8,55.4z
			 M49.7,57.2c2.4-1.3,4.9-2,7.3-2c1.6,0,3.2,0.3,4.7,1c3.1,1.3,6.3,6,6.5,13.5c0.4,11.6-7.8,24.6-18.3,29c-0.7,0.3-1.5,0.5-2.4,0.5
			c-2.7,0-5.8-1.7-7.7-4.2c-2.6-3.4-2.7-8.2-2.5-12c0.2-4.8,4.6-12.3,8.4-19C47.2,61.6,48.5,59.3,49.7,57.2L49.7,57.2z"/>
	</g>
</g>
<g>
	<g>
		<path class="st2" d="M76.4,134c-2.2,0-4.6-0.3-6.9-0.9c-2.9-0.8-5.4-1.8-7.6-3.2c-2.2-1.4-4.1-3.1-5.7-5.1c-1.7-2.1-3-4.3-4-6.8
			c-1-2.3-1.8-4.9-2.4-7.4l0-0.1c-0.2-0.9-0.2-1.9-0.2-2.9c0-1,0.1-2,0.4-3c0.6-2.4,1.8-4.1,3.6-5c1.1-0.6,2.2-0.9,3.4-0.9
			c0.6,0,1.3,0.1,1.9,0.3c1.3,0.4,2.5,1.1,3.4,2.2c0.9,1.1,1.5,2.5,1.7,4.5c0.4,3.6,1.3,6.4,2.7,8.2c1.3,1.8,3.7,3.1,6.9,4
			c1.4,0.4,2.7,0.6,3.9,0.6c2,0,3.6-0.5,5-1.5c2.3-1.7,3.9-4,4.6-6.9c0.4-1.6,0.6-3.3,0.5-5.1c-0.1-1.7-0.5-3.3-1.2-4.7
			c-1.6-2.9-3.7-5.8-6.3-8.6c-2.7-3-5.3-6.1-7.5-9.2c-3.1-4.4-5.2-8.5-6.2-12.2c-1-3.8-1-7.8,0.1-11.9c0.8-3.2,2.2-6,4-8.4
			c1.8-2.4,3.9-4.3,6.4-5.7c2.4-1.4,5.1-2.3,8-2.7c1-0.1,2-0.2,2.9-0.2c2,0,4,0.3,6,0.8c2.4,0.6,4.5,1.6,6.4,2.8
			c1.9,1.2,3.6,2.7,5,4.3c1.9,2.1,3.3,4.6,4.2,7.2c1,2.8,1.1,5.6,0.4,8.3c-0.6,2.1-1.7,3.7-3.4,4.7c-1.2,0.6-2.3,1-3.5,1
			c-0.5,0-1.1-0.1-1.6-0.2c-1.2-0.3-2.3-1-3.2-2c-0.9-1-1.5-2.4-1.8-4.1c-0.4-1.7-1.1-3.2-2.1-4.5c-0.9-1.2-2.3-2-4.2-2.5
			c-1.1-0.3-2.1-0.4-3-0.4c-1.2,0-2.2,0.2-3,0.7c-1.5,0.8-2.6,2.3-3.2,4.6c-0.4,1.6-0.4,3.1,0,4.6c0.5,1.6,1.7,3.7,3.5,6.2
			c1.1,1.5,2.4,3.1,3.7,4.7c1.5,1.7,2.9,3.4,4.3,5.1c1.4,1.7,2.8,3.5,4,5.3c1.3,1.8,2.4,3.7,3.4,5.5c1.5,3,2.4,6.1,2.7,9.3
			c0.3,3.2-0.1,7-1.3,11.4c-0.9,3.4-2.3,6.5-4.3,9.4c-2,2.9-4.4,5.2-7.1,7c-2.8,1.8-5.9,3-9.4,3.6C79.1,133.9,77.7,134,76.4,134z"/>
		<path class="st1" d="M87.6,42.7c1.8,0,3.7,0.3,5.6,0.8c2.2,0.6,4.2,1.4,6,2.6c1.8,1.1,3.3,2.5,4.6,4c1.7,2,3,4.2,3.9,6.7
			c0.9,2.5,1,4.9,0.4,7.4c-0.4,1.7-1.3,2.9-2.7,3.6c-0.9,0.5-1.8,0.8-2.7,0.8c-0.4,0-0.8-0.1-1.2-0.2c-0.9-0.2-1.7-0.8-2.4-1.5
			c-0.7-0.8-1.2-1.9-1.4-3.3c-0.5-2-1.3-3.8-2.4-5.2c-1.2-1.4-2.8-2.4-5-3c-1.2-0.3-2.4-0.5-3.4-0.5c-1.4,0-2.7,0.3-3.8,0.9
			c-1.9,1-3.3,2.9-4,5.6c-0.5,1.9-0.5,3.7,0.1,5.4c0.5,1.8,1.8,4,3.8,6.7c1.1,1.6,2.4,3.2,3.8,4.8c1.4,1.6,2.8,3.3,4.2,5.1
			c1.4,1.7,2.7,3.5,4,5.2c1.3,1.7,2.3,3.5,3.2,5.3c1.4,2.8,2.3,5.7,2.6,8.8c0.3,3-0.1,6.6-1.2,10.9c-0.8,3.2-2.2,6.2-4,8.8
			c-1.8,2.7-4.1,4.9-6.7,6.5c-2.6,1.7-5.5,2.8-8.8,3.3c-1.2,0.2-2.4,0.3-3.7,0.3c-2.1,0-4.3-0.3-6.5-0.9c-2.7-0.7-5.1-1.7-7.1-3
			c-2.1-1.3-3.8-2.9-5.3-4.7c-1.6-2-2.8-4.1-3.8-6.4c-0.9-2.3-1.7-4.7-2.3-7.2c-0.1-0.9-0.2-1.7-0.2-2.6c0-0.9,0.1-1.8,0.4-2.6
			c0.5-1.9,1.4-3.3,2.7-4c0.8-0.4,1.7-0.7,2.6-0.7c0.5,0,1,0.1,1.5,0.2c1,0.3,1.9,0.8,2.6,1.6c0.7,0.8,1.1,2,1.4,3.6
			c0.4,3.9,1.4,6.9,3,9c1.6,2.1,4.2,3.6,7.8,4.6c1.6,0.4,3,0.6,4.3,0.6c2.3,0,4.3-0.6,6-1.8c2.6-1.9,4.4-4.5,5.3-7.8
			c0.5-1.8,0.6-3.7,0.5-5.6c-0.1-2-0.6-3.8-1.4-5.3c-1.6-3.1-3.8-6.1-6.5-9c-2.7-2.9-5.1-6-7.3-9.1c-3-4.2-5-8.1-6-11.7
			c-1-3.6-0.9-7.2,0.1-11c0.8-3,2-5.6,3.7-7.8c1.7-2.2,3.6-4,5.9-5.3c2.2-1.3,4.7-2.2,7.4-2.5C85.8,42.8,86.7,42.7,87.6,42.7
			 M87.6,39.4c-1.1,0-2.1,0.1-3.2,0.2c-3.1,0.4-6,1.4-8.6,2.9c-2.6,1.5-4.9,3.6-6.9,6.2c-1.9,2.6-3.3,5.6-4.2,8.9
			c-1.1,4.4-1.2,8.6-0.1,12.7c1.1,3.9,3.3,8.2,6.5,12.8c2.2,3.2,4.8,6.3,7.6,9.4c2.5,2.7,4.5,5.5,6,8.3c0.6,1.2,1,2.5,1.1,4
			c0.1,1.6-0.1,3.2-0.4,4.6c-0.7,2.6-2,4.5-4,6c-1.1,0.8-2.4,1.2-4,1.2c-1,0-2.2-0.2-3.5-0.5c-2.9-0.8-4.9-1.9-6-3.4
			c-1.2-1.6-2-4.1-2.3-7.4l0,0l0,0c-0.3-2.2-1-4-2.1-5.3c-1.1-1.3-2.6-2.2-4.2-2.7c-0.8-0.2-1.6-0.3-2.3-0.3c-1.4,0-2.8,0.4-4.2,1.1
			c-2.2,1.1-3.6,3.2-4.4,6c-0.3,1.1-0.4,2.3-0.5,3.4c0,1.1,0.1,2.2,0.2,3.2l0,0.1l0,0.1c0.6,2.7,1.5,5.2,2.5,7.7
			c1.1,2.6,2.5,5,4.2,7.2c1.7,2.1,3.8,4,6.1,5.4c2.3,1.5,5,2.6,8.1,3.4c2.5,0.7,5,1,7.3,1c1.4,0,2.8-0.1,4.2-0.4
			c3.6-0.6,7-1.9,10-3.8c3-1.9,5.5-4.4,7.6-7.4c2-3,3.6-6.3,4.5-9.9c1.2-4.6,1.7-8.6,1.3-12c-0.3-3.4-1.3-6.8-2.9-9.9
			c-1-1.9-2.1-3.8-3.5-5.7c-1.3-1.8-2.7-3.6-4.1-5.3c-1.4-1.7-2.8-3.4-4.3-5.1c-1.4-1.6-2.6-3.1-3.6-4.6l0,0l0,0
			c-2.2-3-3-4.7-3.3-5.7c-0.4-1.2-0.4-2.4,0-3.7c0.7-2.7,1.9-3.3,2.3-3.5c0.6-0.3,1.4-0.5,2.3-0.5c0.8,0,1.6,0.1,2.6,0.4
			c1.5,0.4,2.6,1,3.3,1.9c0.8,1,1.4,2.3,1.8,3.8c0.4,2,1.1,3.6,2.2,4.8c1.1,1.2,2.5,2.1,4,2.5c0.7,0.2,1.4,0.3,2,0.3
			c1.4,0,2.9-0.4,4.3-1.2c2.1-1.2,3.6-3.1,4.2-5.7c0.8-3.1,0.7-6.2-0.5-9.3c-1-2.8-2.6-5.4-4.5-7.7c-1.5-1.7-3.3-3.3-5.3-4.6
			c-2.1-1.3-4.4-2.3-6.9-3C91.9,39.7,89.7,39.4,87.6,39.4L87.6,39.4z"/>
	</g>
</g>
<g>
	<path class="st3" d="M60.4,30.8c-1.2,0.4-2.1,1.1-2.7,2.2c-0.8,1.7-0.4,3.5-2.3,4.5c-0.7,0.4-0.1,1.4,0.6,1c1-0.5,1.7-1.3,2.1-2.3
		c0.7-1.7,0.4-3.6,2.6-4.2C61.5,31.7,61.2,30.6,60.4,30.8L60.4,30.8z"/>
</g>
<path class="st4" d="M65.3,29.4c0,0-4.1,3.1-8.2,0"/>
<g>
	<path class="st3" d="M107.2,66.4c1.4,0.9,1.6,2.4,2,3.9c0.3,1.3,0.8,2.4,1.8,3.3c0.7,0.7,1.7-0.4,1.1-1.1c-2.1-2.2-1.3-5.6-4.1-7.4
		C107.1,64.6,106.4,65.9,107.2,66.4L107.2,66.4z"/>
</g>
<path class="st4" d="M109.4,62.9c0,0-3.1,3.7-6.2,2.7"/>
<g>
	<path class="st3" d="M109.3,71c-0.5,0.5-1.1,1.1-1.6,1.6c-0.7,0.7,0.4,1.7,1.1,1.1c0.5-0.5,1.1-1.1,1.6-1.6
		C111,71.4,109.9,70.3,109.3,71L109.3,71z"/>
</g>
<path class="st5" d="M57.8,36.2c0.3,0.7,0.6,1.3,0.9,2"/>
<g class="st6">
	<path class="st1" d="M47.9,21.3c-0.5-5.2,0-10.2,1.5-15.2c0.6-1.9-2.3-2.6-2.9-0.8c-1.6,5.2-2.1,10.6-1.6,16
		C45.1,23.2,48.1,23.2,47.9,21.3L47.9,21.3z"/>
</g>
<g class="st6">
	<path class="st1" d="M39.6,20.9c-3.4-3.4-6-7.3-7.4-11.9c-0.6-1.8-3.5-1.1-2.9,0.8c1.6,5.1,4.5,9.5,8.2,13.3
		C38.8,24.4,40.9,22.3,39.6,20.9L39.6,20.9z"/>
</g>
<g class="st6">
	<path class="st1" d="M36.4,29.3c-4.4,0.4-8.4-0.6-12.1-3.1c-1.6-1.1-3.1,1.5-1.5,2.6c4,2.8,8.7,4,13.6,3.5
		C38.3,32.1,38.3,29.1,36.4,29.3L36.4,29.3z"/>
</g>
<g class="st7">
	<path class="st1" d="M55.4,56.9c-3.5,1.3-7.1,2.4-10.7,3.2c-1.9,0.4-1.1,3.3,0.8,2.9c3.6-0.8,7.2-1.9,10.7-3.2
		C58,59.1,57.2,56.2,55.4,56.9L55.4,56.9z"/>
</g>
<g class="st7">
	<path class="st1" d="M45.1,73.9c4.2,0.6,8.5,1,12.7,1.4c1.9,0.2,1.9-2.8,0-3c-4.3-0.4-8.5-0.8-12.7-1.4
		C43.2,70.6,43.2,73.6,45.1,73.9L45.1,73.9z"/>
</g>
<g class="st7">
	<path class="st1" d="M38.5,82.2c3.5,3.6,7.8,6.1,12.7,7.2c1.9,0.4,2.7-2.5,0.8-2.9c-4.4-1-8.3-3.2-11.4-6.4
		C39.3,78.7,37.2,80.9,38.5,82.2L38.5,82.2z"/>
</g>
<g class="st7">
	<path class="st1" d="M23.8,80.6c-3.1,4.7-5.3,9.8-6.6,15.2c-0.4,1.9,2.5,2.7,2.9,0.8c1.2-5.2,3.3-10,6.3-14.5
		C27.4,80.5,24.8,79,23.8,80.6L23.8,80.6z"/>
</g>
<g class="st7">
	<path class="st1" d="M19.4,72.6c-3.9,1-7.6,2.7-10.9,5.2c-1.5,1.1,0,3.7,1.5,2.6c3.1-2.3,6.4-3.9,10.2-4.9
		C22.1,75.1,21.3,72.2,19.4,72.6L19.4,72.6z"/>
</g>
<g class="st7">
	<path class="st1" d="M39.3,36.4c-2.2,4.5-5.8,8.1-10.5,9.9c-1.8,0.7-1,3.6,0.8,2.9c5.5-2.1,9.7-6.1,12.3-11.3
		C42.7,36.2,40.1,34.7,39.3,36.4L39.3,36.4z"/>
</g>
<circle class="st8" cx="82.7" cy="51.6" r="4.7"/>
<circle class="st9" cx="72" cy="70.5" r="4"/>
<circle class="st10" cx="91.5" cy="102.6" r="4.1"/>
<circle class="st11" cx="86.7" cy="84.3" r="3.8"/>
<circle class="st12" cx="82.4" cy="122.5" r="5"/>
<path class="st10" d="M98.1,121.2c-2.2-0.7-3.3-3-2.6-5.2c0.7-2.2,3-3.3,5.2-2.6"/>
<circle class="st12" cx="58.4" cy="113.5" r="5"/>
<circle class="st13" cx="66.5" cy="128.7" r="3.2"/>
<g>
	<path class="st3" d="M53.5,44.3c1,0.1,2,0.3,3,0c0.7-0.2,1-1.1,1.3-1.7c0.3-0.5-0.5-1-0.8-0.5c-0.2,0.3-0.4,0.6-0.5,0.9
		c-0.2,0.4-0.3,0.4-0.8,0.5c-0.7,0.1-1.5-0.1-2.2-0.2C52.9,43.4,52.9,44.3,53.5,44.3L53.5,44.3z"/>
</g>
<g>
	<path class="st14" d="M53.2,42.9c-0.7,1.1-1.7,1.9-2.8,2.4c-0.5,0.2-0.1,1,0.5,0.8c1.3-0.6,2.4-1.5,3.2-2.7
		C54.3,42.9,53.5,42.4,53.2,42.9L53.2,42.9z"/>
</g>
<g>
	<path class="st3" d="M56.5,44.3c0.6,0.2,1.2,0.4,1.8,0.6c0.6,0.2,0.8-0.7,0.2-0.9c-0.6-0.2-1.2-0.4-1.8-0.6
		C56.2,43.3,55.9,44.1,56.5,44.3L56.5,44.3z"/>
</g>
<circle class="st1" cx="57.7" cy="24.4" r="1.1"/>
<circle class="st1" cx="63.4" cy="24.1" r="1.1"/>
<circle class="st1" cx="101.7" cy="60.4" r="1.1"/>
<circle class="st1" cx="106.4" cy="59.1" r="1.1"/>
<circle class="st15" cx="46.4" cy="43" r="0.8"/>
<circle class="st15" cx="50" cy="39.8" r="0.8"/>
</svg>
